<?xml version="1.0" encoding="utf-8"?>
<!-- Generator: Adobe Illustrator 23.0.4, SVG Export Plug-In . SVG Version: 6.00 Build 0)  -->
<svg version="1.2" baseProfile="tiny" id="Layer_1" xmlns="http://www.w3.org/2000/svg" xmlns:xlink="http://www.w3.org/1999/xlink"
	 x="0px" y="0px" viewBox="0 0 200 200" xml:space="preserve">
<g display="none">
	<g display="inline">
		<circle fill="#5F6368" cx="100.58" cy="99.99" r="90.06"/>
		<g>
			<path fill="#FFFFFF" d="M148.02,100.35c0,6.69,0.04,13.38-0.01,20.08c-0.12,16.75-12.41,29.09-29.12,29.18
				c-13.26,0.07-26.52,0.04-39.78,0.01c-16.56-0.03-28.84-10.4-29.82-26.83c-0.9-15.06-0.84-30.25,0.01-45.32
				c0.84-14.94,10.99-25.54,25.8-26.44c15.91-0.97,31.98-0.89,47.89,0.16c14.59,0.96,24.79,13.33,25.01,27.98
				C148.1,86.22,148.02,93.28,148.02,100.35z M140.67,100.42c0-6.82,0.08-13.64-0.02-20.46c-0.17-12.86-9.29-21.89-22.2-21.96
				c-13.27-0.07-26.53-0.08-39.8,0c-13.05,0.08-22.17,9.25-22.23,22.34c-0.07,13.27-0.07,26.53,0,39.8
				c0.07,12.83,9.17,22,22.05,22.11c13.39,0.11,26.78,0.1,40.17,0c12.92-0.1,21.9-9.18,22.01-22.11
				C140.72,113.56,140.67,106.99,140.67,100.42z"/>
			<path fill="#FFFFFF" d="M71.94,100.05c0.07-14.55,12.04-26.52,26.54-26.53c14.68-0.02,26.86,12.14,26.77,26.73
				c-0.09,14.59-12.48,26.81-26.95,26.59C83.75,126.61,71.87,114.53,71.94,100.05z M79.38,99.7c-0.28,10.58,8.3,19.46,19.02,19.68
				c10.29,0.21,19.15-8.45,19.39-18.97c0.24-10.33-8.42-19.25-18.88-19.45C88.42,80.77,79.66,89.17,79.38,99.7z"/>
			<circle fill="#FFFFFF" cx="128.43" cy="70.56" r="3.85"/>
		</g>
	</g>
</g>
<g>
	<circle fill="#5F6368" cx="100.58" cy="99.99" r="90.06"/>
	<path fill="#FFFFFF" d="M92.13,105.58c-1.63-0.1-2.62-0.17-3.61-0.21c-8.42-0.34-15.14,5.64-15.49,13.76
		c-0.35,8.18,5.98,15.02,14.07,15.22c8.34,0.2,14.99-6.11,15.03-14.63c0.09-21.44,0.03-42.89,0.03-64.33c0-1.32,0-2.65,0-4.23
		c5.86,0,11.47,0,17.13,0c1.63,14.45,9.7,22.37,24.19,24.1c0,5.63,0,11.23,0,17c-8.61,0.29-16.09-2.57-23.64-7.21
		c-0.09,1.57-0.21,2.71-0.22,3.85c-0.01,10.16,0,20.33-0.01,30.49c-0.01,17.57-13.43,31.86-30.44,32.44
		c-17.96,0.61-32.4-12.41-33.6-30.3C54.34,103,70.77,86.65,89.28,87.89c2.11,0.14,2.95,0.83,2.89,3.02
		C92.04,95.69,92.13,100.47,92.13,105.58z"/>
</g>
</svg>
