<?xml version="1.0" encoding="utf-8"?>
<!-- Generator: Adobe Illustrator 23.0.4, SVG Export Plug-In . SVG Version: 6.00 Build 0)  -->
<svg version="1.2" baseProfile="tiny" id="Layer_1" xmlns="http://www.w3.org/2000/svg" xmlns:xlink="http://www.w3.org/1999/xlink"
	 x="0px" y="0px" viewBox="0 0 200 200" xml:space="preserve">
<g display="none">
	<circle display="inline" fill="#5F6368" cx="100.05" cy="99.71" r="51.23"/>
	<path display="inline" fill="#FFFFFF" d="M95.24,102.89c-0.93-0.06-1.49-0.1-2.05-0.12c-4.79-0.19-8.61,3.21-8.81,7.83
		c-0.2,4.65,3.4,8.54,8,8.66c4.74,0.11,8.53-3.48,8.55-8.32c0.05-12.2,0.02-24.4,0.02-36.6c0-0.75,0-1.51,0-2.41
		c3.33,0,6.53,0,9.75,0c0.93,8.22,5.52,12.73,13.76,13.71c0,3.2,0,6.39,0,9.67c-4.9,0.17-9.15-1.46-13.45-4.1
		c-0.05,0.89-0.12,1.54-0.12,2.19c-0.01,5.78,0,11.57-0.01,17.35c-0.01,10-7.64,18.12-17.32,18.45
		c-10.22,0.35-18.43-7.06-19.11-17.24c-0.71-10.54,8.64-19.84,19.17-19.13c1.2,0.08,1.68,0.47,1.64,1.72
		C95.19,97.26,95.24,99.98,95.24,102.89z"/>
</g>
<circle fill="#5F6368" cx="99.58" cy="100.99" r="90.06"/>
<g>
	<path fill="#FFFFFF" d="M153.39,102.33c0,7.26,0.04,14.5-0.02,21.76c-0.13,18.16-13.45,31.54-31.58,31.63
		c-14.37,0.08-28.76,0.04-43.13,0.02c-17.95-0.04-31.27-11.28-32.32-29.08c-0.97-16.33-0.91-32.8,0.02-49.13
		c0.91-16.2,11.91-27.69,27.98-28.66c17.25-1.05,34.66-0.97,51.91,0.17c15.82,1.05,26.87,14.45,27.12,30.34
		C153.49,87.03,153.39,94.67,153.39,102.33z M145.43,102.41c0-7.39,0.1-14.79-0.02-22.18c-0.19-13.95-10.08-23.73-24.07-23.8
		c-14.39-0.08-28.76-0.1-43.14,0c-14.14,0.1-24.03,10.02-24.11,24.22c-0.08,14.39-0.08,28.76,0,43.14
		c0.08,13.91,9.95,23.86,23.9,23.97c14.52,0.11,29.02,0.11,43.54,0c14.01-0.11,23.74-9.95,23.86-23.97
		C145.49,116.66,145.43,109.53,145.43,102.41z"/>
	<path fill="#FFFFFF" d="M70.92,102.01c0.08-15.78,13.05-28.76,28.78-28.76c15.91-0.02,29.12,13.17,29.02,28.99
		s-13.53,29.06-29.21,28.83C83.72,130.8,70.84,117.71,70.92,102.01z M79,101.64c-0.3,11.47,8.99,21.1,20.62,21.34
		c11.15,0.23,20.75-9.17,21.02-20.56c0.25-11.22-9.13-20.89-20.47-21.12C88.79,81.12,79.28,90.21,79,101.64z"/>
	<circle fill="#FFFFFF" cx="132.17" cy="70.05" r="4.17"/>
</g>
</svg>
